<svg xmlns="http://www.w3.org/2000/svg" width="100" height="100" viewBox="0 0 100 100" id="svg2" clip-rule="evenodd" fill-rule="evenodd" image-rendering="optimizeQuality" shape-rendering="geometricPrecision" text-rendering="geometricPrecision"><defs id="defs4"><style id="style6"><![CDATA[
    .str0 {stroke:#1F1A17;stroke-width:0.9}
    .fil1 {fill:none}
    .fil0 {fill:#AAA9A9}
    .fil2 {fill:#DA251D}
    .fil3 {fill:white}
   ]]></style></defs><g id="Warstwa_x0020_1" transform="scale(3.33333)"><circle class="fil0 str0" cx="15" cy="15" r="13.763" id="circle10" fill="#aaa9a9" stroke="#1f1a17" stroke-width=".9"/><path class="fil1" id="rect12" fill="none" d="M0 0h30v30H0z"/><circle class="fil2" cx="15" cy="15" r="13.763" id="circle14" fill="#da251d"/><path class="fil3" d="M13.078 24.154c.475 1.298 1.713 2.2 3.134 2.124 1.746-.093 3.08-1.622 2.98-3.415-.012-.234-.052-.46-.11-.678-2.052.795-4.166 1.49-6.004 1.97z" id="path16" fill="#fff"/><path class="fil3" d="M24.937 15.963c3.648 2.922-20.51 10.677-17.19 6.27C10.938 18 5.48 8.584 10.826 5.512l-.284-.78c-.185-.512.05-1.088.526-1.288.475-.2 1.01.054 1.197.567l.295.812c7.01-1.838 5.942 9.768 12.375 11.14z" id="path18" fill="#fff"/></g></svg>