<svg id="Warstwa_1" data-name="Warstwa 1" xmlns="http://www.w3.org/2000/svg" viewBox="0 0 512 512"><defs><style>.cls-1,.cls-3{fill:#404040;}.cls-2{fill:#ebaa35;}.cls-3{fill-rule:evenodd;}.cls-4{fill:none;stroke:#404040;stroke-miterlimit:10;stroke-width:32px;}.cls-5{fill:#5eccf7;}.cls-6{fill:#fff;}</style></defs><title>GuardX_ikonka</title><path class="cls-1" d="M440.81 44.89C319.89 54 272.18 5 245.38 5S170.87 54 50 44.89c-7.89 122.87-12.46 232.68 32.64 317.65s89.54 119 162.74 144.44c73.2-25.49 117.62-59.48 162.75-144.44s40.52-194.78 32.68-317.65z"/><path class="cls-2" d="M416.77 70.85c-106 8-147.89-35-171.39-35S180 78.88 74 70.85c-6.89 107.77-10.9 204.07 28.65 278.58s78.53 104.33 142.73 126.69c64.2-22.36 103.18-52.17 142.73-126.69s35.54-170.81 28.66-278.58z"/><path class="cls-3" d="M236.44 222.41V101.05l-107.2 60.63 107.2 60.73zM254.31 222.41l107.23-60.73-107.23-60.63v121.36zM263.28 237.57l107.21 60.63V176.82l-107.21 60.75zM254.31 252.74v121.25l107.23-60.62-107.23-60.63zM236.44 252.74l-107.2 60.63 107.2 60.62V252.74zM227.5 237.57l-107.23-60.75V298.2l107.23-60.63z"/><path class="cls-4" d="M370.63 344.35l41.86-77h52.91l-65 110.72 66.71 112.57h-53.54l-42.94-78.22-42.94 78.22h-53.53l66.71-112.57-65-110.72h52.91z"/><path class="cls-5" d="M411.79 493.66l-41.16-74.98-41.17 74.98H268.9l68.49-115.58-66.78-113.71h59.93l40.09 73.7 40.08-73.7h59.93l-66.78 113.71 68.49 115.58h-60.56z"/><path class="cls-6" d="M465.4 267.37l-65 110.72 66.71 112.57h-53.54l-42.94-78.22-42.94 78.22h-53.53l66.71-112.57-65-110.72h52.91l41.87 77 41.86-77h52.89m10.48-6h-66.95l-1.71 3.13-36.59 67.29L334 264.5l-1.7-3.13h-67l5.31 9 63.23 107.67L269 487.6l-5.37 9.06h67.61l1.71-3.12 37.68-68.63 37.68 68.63 1.71 3.12h67.6l-5.37-9.06-64.91-109.52 63.23-107.67 5.31-9z"/></svg>