<svg xmlns="http://www.w3.org/2000/svg" viewBox="0 0 177 54.9"><path fill-rule="evenodd" clip-rule="evenodd" fill="#FFF" d="M115.7 30.500000000000004c0 .5-.4.9-.9.9h-5c-.5 0-.9-.4-.9-.9.5-2.3 1.2-4.3 2.2-6.5.9-1.5 1.6-1.5 2.4 0 .9 2.2 1.7 4.2 2.2 6.5zm.3-11.3c5.7 1.7 9.7 6.9 9.7 12.8v2.1c0 1-.8 1.8-1.8 1.8h-13.6c-.5 0-.9.4-.9.9 0 .7.7 2.1.9 2.9.8 2 2.8 3.3 5 3.3 2.1 0 4.3-.4 6.3-.5h.1c.8 0 1.5.6 1.5 1.4 0 .6-.4 1.2-1 1.4-6.7 2.1-11.2 2.8-18.2.3-4.7-2.2-7.8-7-7.8-12.1v-1.2c0-5.1 3.1-9.9 7.8-12.1 3.6-2.1 8.1-2.1 12-1zM92 15.7v-3.1c0-1.2-.9-2.8-3.4-2-5.3 3.8-10.8 6.1-16.2 6.4-1 .1-1.9 1-1.9 2 0 1.1.9 2 2 2h.8c1.3 0 2.3 1 2.3 2.2V46H92V24.2c0-.8.4-1.5 1.1-1.9 1.2-.7 3.1-1.4 3.1-3.1 0-1.2-1-2.2-2.3-2.2-.8 0-1.9-.1-1.9-1.3M53.7 23.3l-6.5-1c-.7-.1-1.3-.8-1.3-1.5 0-.8.7-1.5 1.5-1.5h14.4c4.5 0 8.2 3.6 8.2 8v18.8H56.3v-1.3l-4.5 1.3h-3.2c-4.5 0-8.2-2.8-8.2-9s3.7-8.8 8.2-8.8h7.7v-1.8c0-1.6-1.1-3-2.6-3.2m2.6 17.8c-2-.6-5.7-2.8-5.7-4.5s3.7-3.9 5.7-4.5v9zM29.2 46.1c4.5 0 8.2-3.6 8.2-8 0-1.1-.3-2.2-.7-3.2L29.3 18c-.1-.3-.2-.6-.2-.9 0-1.2 1-2.2 2.3-2.2h3.7c1.2 0 2.3-1 2.3-2.2 0-1.2-1-2.2-2.3-2.2H20.6c-4.5 0-8.2 3.6-8.2 8 0 1.1.3 2.2.7 3.2l7.4 16.9c.1.3.2.6.2.9 0 1.2-1 2.2-2.3 2.2h-3.7c-1.3 0-2.3 1-2.3 2.2 0 1.2 1 2.2 2.3 2.2h14.5M130.4 16.2c-1 .3-1.7 1.1-1.7 2.1V46H145V12.6c0-1.2-1-2.2-2.3-2.2-1 0-2 .2-3.2 1.4-1.8 1.6-4.2 2.9-9.1 4.4M158.8 14.3v-9l-8 4.5 8 4.5M160.2 14.3l8-4.5-8-4.5v9M160.8 15.5l8.1 4.5v-9.1l-8.1 4.6M160.2 16.6v9.1l8-4.6-8-4.5M158.8 16.6l-8 4.5 8 4.6v-9.1M158.2 15.5l-8.1-4.6V20l8.1-4.5M154.2 37.9c.7 0 1.4.2 2 .5.6.3 1.1.9 1.5 1.5.4.7.5 1.3.5 2s-.2 1.4-.5 2c-.4.6-.9 1.1-1.5 1.5-.6.4-1.3.5-2 .5s-1.4-.2-2-.5c-.6-.4-1.1-.9-1.5-1.5-.4-.6-.5-1.3-.5-2s.2-1.4.6-2c.4-.6.9-1.2 1.5-1.5.6-.3 1.2-.5 1.9-.5m0 .8c-.6 0-1.1.1-1.6.4-.5.3-.9.7-1.2 1.2-.3.5-.4 1.1-.4 1.6 0 .6.1 1.1.4 1.6.3.5.7.9 1.2 1.2.5.3 1.1.4 1.6.4.6 0 1.1-.1 1.6-.4.5-.3.9-.7 1.2-1.2.3-.5.4-1.1.4-1.6 0-.6-.1-1.1-.4-1.6-.3-.5-.7-.9-1.2-1.2-.5-.3-1-.4-1.6-.4zm-1.8 5.4v-4.3h2.3c.3 0 .5.1.7.2.2.1.3.2.4.4.1.2.2.4.2.6 0 .3-.1.6-.3.8-.2.2-.5.4-.9.4.1 0 .2.1.3.2l.3.3s.1.2.3.5l.5.9h-1.1l-.4-.7c-.2-.5-.4-.8-.6-.9-.2-.1-.4-.2-.6-.2h-.2v1.8h-.9zm.9-2.4h.4c.5 0 .8 0 .9-.1.1 0 .2-.1.3-.2.1-.1.1-.2.1-.3 0-.1 0-.2-.1-.3-.1-.1-.2-.2-.3-.2-.1 0-.4-.1-.9-.1h-.4v1.2z"/></svg>