<svg xmlns="http://www.w3.org/2000/svg" width="617" height="108" viewBox="0 0 617 108"><path fill="#FFF" d="M42.425 95.86L18.255 54l24.17-41.86H90.76L114.93 54 90.76 95.86"/><path fill="none" d="M66.593 54l12.084 20.93L114.93 54 78.676 33.07M66.593 26.094L42.425 12.14 54.51 33.07M54.51 74.93L42.424 95.86l24.168-13.954"/><path fill="#FFE3AB" d="M78.677 74.93L90.76 95.86 114.93 54M42.425 95.86H90.76L66.594 81.905"/><path fill="#FECE61" d="M54.51 74.93l12.083 6.976 12.084-6.976L66.593 54M42.425 12.14L18.255 54 54.51 33.07"/><path opacity=".4" fill="#FBBA00" d="M66.593 81.906L90.76 95.86 78.678 74.93"/><path fill="#FBBA00" d="M66.593 81.906L90.76 95.86 78.678 74.93"/><path fill="#FFE3AB" d="M66.593 26.094L54.51 33.07 66.592 54l12.084-20.93M18.256 54l24.17 41.86 12.083-20.93"/><path opacity=".6" fill="#FBBA00" d="M66.593 54L54.51 33.07 18.255 54 54.51 74.93"/><path fill="#FBBA00" d="M66.593 54L54.51 33.07 18.255 54 54.51 74.93"/><path fill="#FFE3AB" d="M114.93 54L90.76 12.14 78.678 33.07M90.76 12.14H42.426l24.168 13.954"/><path opacity=".4" fill="#FBBA00" d="M78.677 33.07L90.76 12.14 66.594 26.095"/><path fill="#FBBA00" d="M78.677 33.07L90.76 12.14 66.594 26.095"/><g fill="#4A4A49"><path d="M138.91 78.537v-49.42h13.346v49.42H138.91zM211.64 78.537l-33.343-33.955v33.955h-13.344v-49.42h14.495l33.38 34.098v-34.1H226.1v49.422h-14.46zM266.957 39.87V78.54h-13.345V39.87h-20.97V29.117h55.32V39.87h-21.005zM294.772 78.537v-49.42h41.183v4.208h-36.29v17.013h34.456v4.1h-34.456V74.33h36.832v4.207h-41.724zM375.383 28.217c2.277 0 4.4.113 6.367.342 1.965.227 3.848.55 5.646.97 1.8.42 3.55.924 5.252 1.51 1.7.59 3.416 1.242 5.143 1.96v5.47c-1.366-.864-2.825-1.68-4.372-2.447-1.547-.767-3.217-1.438-5.004-2.014-1.787-.577-3.707-1.032-5.758-1.368-2.053-.336-4.254-.504-6.605-.504-4.8 0-8.985.504-12.562 1.51-3.576 1.01-6.55 2.447-8.926 4.317-2.377 1.87-4.158 4.15-5.346 6.834-1.188 2.686-1.78 5.707-1.78 9.063 0 3.14.58 6.038 1.743 8.686 1.163 2.65 2.927 4.933 5.292 6.853 2.363 1.918 5.32 3.416 8.873 4.496 3.55 1.077 7.715 1.616 12.49 1.616 1.87 0 3.725-.072 5.563-.215 1.834-.144 3.568-.33 5.2-.558 1.632-.227 3.12-.48 4.464-.754s2.484-.56 3.42-.846v-15h-20.107v-4.208h24.604V75.66c-1.776.623-3.567 1.176-5.378 1.654-1.81.48-3.682.88-5.61 1.205-1.933.323-3.935.57-6.01.737-2.073.166-4.25.25-6.526.25-4.652 0-8.97-.52-12.95-1.564s-7.427-2.625-10.34-4.748c-2.913-2.12-5.198-4.79-6.853-8.002s-2.482-6.99-2.482-11.33c0-2.902.386-5.546 1.153-7.932s1.852-4.53 3.254-6.437c1.404-1.907 3.094-3.567 5.072-4.982 1.978-1.413 4.17-2.582 6.58-3.506 2.41-.923 5.007-1.618 7.788-2.086s5.683-.7 8.705-.7zM415.668 57.39v21.147h-4.496v-49.42h24.604c3.764 0 6.988.293 9.674.88s4.887 1.476 6.602 2.662c1.713 1.187 2.967 2.667 3.758 4.44.79 1.776 1.188 3.85 1.188 6.224 0 3.693-.97 6.648-2.914 8.866-1.94 2.22-5.07 3.735-9.387 4.55l16.87 21.797h-5.647l-15.936-21.293c-.672.05-1.355.084-2.05.107-.696.026-1.415.038-2.157.038h-20.11zm36.725-14.066c0-2.11-.373-3.818-1.117-5.125s-1.955-2.32-3.637-3.04c-1.68-.72-3.884-1.206-6.606-1.457-2.725-.252-6.068-.378-10.027-.378H415.67V53.18h15.192c3.96 0 7.31-.114 10.045-.343 2.736-.228 4.957-.695 6.66-1.402 1.705-.707 2.936-1.702 3.69-2.985s1.136-2.992 1.136-5.126zM516.596 69.744c-1.043 2.025-2.602 3.764-4.676 5.215s-4.67 2.57-7.787 3.362-6.75 1.186-10.898 1.186-7.78-.395-10.898-1.186-5.72-1.912-7.805-3.363-3.65-3.19-4.695-5.216c-1.043-2.027-1.564-4.275-1.564-6.746V29.116h4.496V63.36c0 1.654.437 3.22 1.313 4.693.875 1.475 2.176 2.764 3.902 3.867s3.86 1.98 6.402 2.625c2.54.648 5.49.97 8.848.97 3.334 0 6.27-.32 8.813-.97 2.54-.646 4.676-1.52 6.402-2.625s3.027-2.393 3.902-3.867 1.314-3.04 1.314-4.693V29.116h4.496v33.882c0 2.47-.52 4.72-1.566 6.746zM594.32 78.537V36.49l-27.156 42.047h-3.992L535.98 36.31v42.227h-4.497v-49.42h4.82l28.99 44.782 28.668-44.784h4.784v49.42h-4.424z"/></g></svg>