<svg xmlns="http://www.w3.org/2000/svg" width="98" height="83" viewBox="0 0 98 83"><path fill="#FFE3AB" d="M60.42 62.93l12.085 20.93L96.673 42M24.168 83.86h48.337l-24.17-13.954"/><path fill="#FECE61" d="M36.252 62.93l12.084 6.976L60.42 62.93 48.337 42M24.168.14L0 42l36.252-20.93"/><path fill="#FBBA00" opacity=".4" d="M48.336 69.906l24.17 13.954L60.42 62.93"/><path fill="#FBBA00" d="M48.336 69.906l24.17 13.954L60.42 62.93"/><path fill="#FFE3AB" d="M48.336 14.094L36.252 21.07 48.336 42 60.42 21.07M0 42l24.168 41.86 12.084-20.93"/><path fill="#FBBA00" opacity=".6" d="M48.336 42L36.252 21.07 0 42l36.252 20.93"/><path fill="#FBBA00" d="M48.336 42L36.252 21.07 0 42l36.252 20.93"/><path fill="#FFE3AB" d="M96.673 42L72.505.14 60.42 21.07M72.505.14H24.168l24.168 13.954"/><path fill="#FBBA00" opacity=".4" d="M60.42 21.07L72.506.14l-24.17 13.954"/><path fill="#FBBA00" d="M60.42 21.07L72.506.14l-24.17 13.954"/></svg>