<svg xmlns="http://www.w3.org/2000/svg" viewBox="0 0 377.9 109.7"><path fill-rule="evenodd" clip-rule="evenodd" d="M249.4 63.8v.1c0 1.1-.9 2.1-2.1 2.1h-11.6c-1.2 0-2.1-.9-2.1-2.1v-.1c1.1-5.4 2.8-10.1 5.1-15.1 2-3.5 3.7-3.5 5.6 0 2.2 5.2 3.8 9.9 5.1 15.1zm.7-26.4c13.3 3.9 22.6 16.1 22.6 29.9v4.9c0 2.3-1.9 4.2-4.2 4.2h-31.7c-1.2 0-2.1.9-2.1 2.1 0 1.7 1.5 4.9 2.1 6.7 1.9 4.6 6.6 7.7 11.7 7.7 4.8 0 10-.8 14.8-1.2h.3c1.9 0 3.4 1.5 3.4 3.3 0 1.5-1 2.8-2.4 3.2-15.7 4.9-26.1 6.5-42.5.6-10.9-5.2-18.1-16.3-18.1-28.2v-2.8c0-12 7.3-23.2 18.3-28.2 8.3-4.6 18.7-4.6 27.8-2.2zM194.2 29.3V22c0-2.9-2.2-6.6-8-4.6-12.3 8.9-25.2 14.2-37.8 15-2.4.2-4.3 2.3-4.3 4.7 0 2.6 2.1 4.7 4.8 4.7h1.9c2.9 0 5.3 2.3 5.3 5.2v53.1h38.1V49.3c0-1.8 1-3.5 2.6-4.5 2.9-1.7 7.3-3.3 7.3-7.3 0-2.9-2.4-5.2-5.3-5.2-2.2.2-4.6-.2-4.6-3M104.6 47.1l-15.2-2.4c-1.7-.3-3-1.8-3-3.5 0-2 1.6-3.6 3.6-3.6h33.6c10.5 0 19.1 8.4 19.1 18.8v43.8h-31.8V97l-10.6 3.1h-7.4c-10.5 0-19.1-6.6-19.1-21.1 0-14.5 8.6-20.6 19.1-20.6h18v-4.2c0-3.5-2.7-6.6-6.3-7.1m6.3 41.6c-4.6-1.4-13.2-6.5-13.2-10.4s8.5-9 13.2-10.4v20.8zM47.5 100.2c10.5 0 19.1-8.4 19.1-18.8 0-2.5-.6-5.1-1.6-7.4L47.7 34.5c-.3-.6-.4-1.4-.4-2.1 0-2.9 2.4-5.2 5.3-5.2h8.7c2.9 0 5.3-2.3 5.3-5.2 0-2.9-2.4-5.2-5.3-5.2H27.4c-10.5 0-19.1 8.4-19.1 18.8 0 2.5.6 5.1 1.6 7.4l17.3 39.5c.3.6.4 1.4.4 2.1 0 2.9-2.4 5.2-5.3 5.2h-8.7c-2.9 0-5.3 2.3-5.3 5.2 0 2.9 2.4 5.2 5.3 5.2h33.9M283.7 30.5c-2.3.6-3.9 2.7-3.9 5v64.6h38.1V22c0-2.9-2.4-5.2-5.3-5.2-2.4 0-4.6.4-7.5 3.4-4.5 3.8-10.1 6.9-21.4 10.3M350 26.2V5l-18.7 10.6L350 26.2M353.2 26.2l18.7-10.6L353.2 5v21.2M354.7 28.8l18.7 10.6V18.2l-18.7 10.6M353.2 31.5v21.1l18.7-10.5-18.7-10.6M350 31.5l-18.7 10.6L350 52.6V31.5M348.5 28.8l-18.7-10.6v21.2l18.7-10.6M339.3 81.1c1.6 0 3.2.4 4.7 1.2 1.5.8 2.7 2 3.5 3.5.9 1.5 1.3 3.1 1.3 4.8 0 1.7-.4 3.2-1.3 4.7-.8 1.5-2 2.7-3.5 3.5-1.5.8-3.1 1.3-4.7 1.3-1.7 0-3.2-.4-4.7-1.3-1.5-.8-2.7-2-3.5-3.5-.8-1.5-1.3-3.1-1.3-4.7 0-1.7.4-3.3 1.3-4.8s2-2.7 3.5-3.5c1.5-.8 3.1-1.2 4.7-1.2m0 1.9c-1.3 0-2.6.3-3.8 1-1.2.7-2.1 1.6-2.8 2.8-.7 1.2-1 2.5-1 3.8 0 1.3.3 2.6 1 3.8.7 1.2 1.6 2.1 2.8 2.8 1.2.7 2.5 1 3.8 1s2.6-.3 3.8-1c1.2-.7 2.1-1.6 2.8-2.8.7-1.2 1-2.5 1-3.8 0-1.3-.3-2.6-1-3.8-.7-1.2-1.6-2.2-2.8-2.8-1.2-.7-2.5-1-3.8-1zM335 95.7V85.6H340.3c.7.1 1.2.2 1.6.4.4.2.7.5.9 1 .3.4.4.9.4 1.5 0 .7-.2 1.3-.7 1.9-.5.5-1.1.8-2 1 .3.1.5.2.7.4.2.1.4.4.7.8.1.1.3.5.7 1.2l1.2 2h-2.5l-.8-1.6c-.6-1.1-1-1.8-1.4-2.1-.4-.3-.8-.4-1.4-.4h-.5v4.1H335zm2.1-5.7h.8c1.2 0 1.9 0 2.2-.1.3-.1.5-.2.7-.5.2-.2.2-.5.2-.8 0-.3-.1-.5-.2-.8-.2-.2-.4-.4-.7-.5-.3-.1-1-.1-2.2-.1h-.8V90z"/></svg>